<?xml version="1.0" standalone="no"?><!DOCTYPE svg PUBLIC "-//W3C//DTD SVG 1.1//EN" "http://www.w3.org/Graphics/SVG/1.1/DTD/svg11.dtd"><svg t="1747646317632" class="icon" viewBox="0 0 1024 1024" version="1.1" xmlns="http://www.w3.org/2000/svg" p-id="6140" xmlns:xlink="http://www.w3.org/1999/xlink" width="200" height="200"><path d="M999.528 1.252 24.469 1.252c-12.833 0-23.216 10.384-23.216 23.216l0 975.063c0 12.832 10.384 23.217 23.216 23.217L999.53 1022.748c12.835 0 23.217-10.385 23.217-23.217L1022.747 24.469C1022.746 11.637 1012.364 1.252 999.528 1.252zM976.315 976.315 47.686 976.315 47.686 758.032l280.539-248.187 282.558 315.567c8.365 9.362 22.627 10.294 32.192 2.313l172.577-144.398 155.255 169.382c1.587 1.745 3.582 2.789 5.509 3.921L976.316 976.315 976.315 976.315zM976.315 790 834.799 635.605c-8.434-9.184-22.534-10.044-32.012-2.109L630.392 777.712 347.449 461.69c-8.547-9.521-23.126-10.361-32.694-1.904L47.684 696.048 47.684 47.684l928.629 0L976.313 790 976.315 790z" fill="#272636" p-id="6141"></path><path d="M697.725 435.823c58.357 0 105.694-47.294 105.694-105.672 0-58.357-47.337-105.695-105.694-105.695-58.333 0-105.671 47.338-105.671 105.695C592.054 388.529 639.393 435.823 697.725 435.823zM697.725 270.886c32.671 0 59.264 26.594 59.264 59.263 0 32.671-26.592 59.242-59.264 59.242-32.668 0-59.24-26.57-59.24-59.242C638.484 297.48 665.057 270.886 697.725 270.886z" fill="#272636" p-id="6142"></path></svg>