<?xml version="1.0" standalone="no"?><!DOCTYPE svg PUBLIC "-//W3C//DTD SVG 1.1//EN" "http://www.w3.org/Graphics/SVG/1.1/DTD/svg11.dtd"><svg t="1747584547580" class="icon" viewBox="0 0 1024 1024" version="1.1" xmlns="http://www.w3.org/2000/svg" p-id="6451" xmlns:xlink="http://www.w3.org/1999/xlink" width="200" height="200"><path d="M772.721 64v143.213l-47.738-47.738c-41.617-41.617-89.355-69.158-143.213-82.623-53.858-13.464-107.716-13.464-161.574 0s-100.984 40.393-141.377 80.787-67.934 87.519-82.623 141.377-14.689 107.716 0 161.574c14.689 53.858 41.618 101.596 80.787 143.213L636.852 960l47.738-47.738-356.197-359.869c-31.825-29.377-53.858-65.486-66.098-108.328-12.24-42.842-12.24-85.683 0-128.525s33.661-79.563 64.262-110.164 67.322-51.41 110.164-62.426 85.071-11.016 126.689 0c41.617 11.016 78.339 32.437 110.164 64.262l66.098 66.098H563.41v66.098h242.361l33.049-33.049V64h-66.099z" p-id="6452"></path></svg>